<?xml version="1.0" encoding="UTF-8" standalone="no"?>
<!-- Created with Inkscape (http://www.inkscape.org/) -->

<svg
   xmlns:dc="http://purl.org/dc/elements/1.1/"
   xmlns:cc="http://creativecommons.org/ns#"
   xmlns:rdf="http://www.w3.org/1999/02/22-rdf-syntax-ns#"
   xmlns:svg="http://www.w3.org/2000/svg"
   xmlns="http://www.w3.org/2000/svg"
   xmlns:sodipodi="http://sodipodi.sourceforge.net/DTD/sodipodi-0.dtd"
   xmlns:inkscape="http://www.inkscape.org/namespaces/inkscape"
   width="210mm"
   height="297mm"
   viewBox="0 0 210 297"
   version="1.1"
   id="svg8"
   inkscape:version="0.92.4 (33fec40, 2019-01-16)"
   sodipodi:docname="drawing.svg">
  <defs
     id="defs2" />
  <sodipodi:namedview
     id="base"
     pagecolor="#ffffff"
     bordercolor="#666666"
     borderopacity="1.0"
     inkscape:pageopacity="0.0"
     inkscape:pageshadow="2"
     inkscape:zoom="0.98994949"
     inkscape:cx="484.94326"
     inkscape:cy="549.69965"
     inkscape:document-units="mm"
     inkscape:current-layer="layer1"
     showgrid="false"
     inkscape:window-width="2560"
     inkscape:window-height="1016"
     inkscape:window-x="0"
     inkscape:window-y="27"
     inkscape:window-maximized="1" />
  <metadata
     id="metadata5">
    <rdf:RDF>
      <cc:Work
         rdf:about="">
        <dc:format>image/svg+xml</dc:format>
        <dc:type
           rdf:resource="http://purl.org/dc/dcmitype/StillImage" />
        <dc:title></dc:title>
      </cc:Work>
    </rdf:RDF>
  </metadata>
  <g
     inkscape:label="Layer 1"
     inkscape:groupmode="layer"
     id="layer1">
    <rect
       style="fill:#800080;stroke-width:0.26458332"
       id="rect10"
       width="181.42857"
       height="126.62202"
       x="12.851191"
       y="79.663696" />
    <path
       style="fill:#800080;stroke-width:0.26458332"
       id="path31"
       d="m 70.666106,117.89226 c -1.070655,-0.83452 -2.198621,-1.61972 -3.447288,-2.16239 -0.725768,-0.2712 -1.456563,-0.50569 -2.226392,-0.60362 -0.666403,-0.0635 -1.334981,-0.0181 -1.999982,-0.0915 -0.87906,-0.2231 -1.772153,-0.35322 -2.675306,-0.42189 -0.813763,-0.0577 -1.663102,-0.0764 -2.43814,0.20512 -0.842926,0.29674 -1.693042,0.54669 -2.488261,0.95974 -1.665991,1.00282 0.913802,-0.55726 2.47645,-1.35547 0.155194,-0.0793 -0.268446,0.22235 -0.399899,0.33677 -0.337643,0.29387 -0.665703,0.59784 -1.005822,0.88905 -0.529087,0.47954 -1.099997,0.90705 -1.658771,1.35023 -0.699246,0.57459 -1.34353,1.21189 -1.98878,1.84539 -0.641239,0.54492 -1.063003,1.18804 -1.329788,1.97871 -0.222885,0.7874 -0.251896,1.60783 -0.273399,2.42042 -0.01019,0.84534 -0.0058,1.69076 -0.0056,2.53614 0.01648,0.6778 0.174432,1.34411 0.368671,1.99073 0,0 -3.485314,1.90814 -3.485314,1.90814 v 0 c -0.211392,-0.68059 -0.370078,-1.38697 -0.412086,-2.09958 -0.0049,-0.84685 -0.01408,-1.69375 -0.0068,-2.54059 0.0136,-0.84408 0.04318,-1.69333 0.228152,-2.52042 0.23467,-0.84259 0.56247,-1.58648 1.253726,-2.15987 0.644117,-0.63583 1.28661,-1.27434 1.963415,-1.87569 0.549428,-0.45802 1.140901,-0.86039 1.667666,-1.34562 0.04154,-0.0347 0.628573,-0.52447 0.65514,-0.54812 0.09739,-0.0867 0.660064,-0.63049 0.759698,-0.69398 1.2544,-0.79931 2.53402,-1.5584 3.808039,-2.32604 0.154766,-0.0932 0.318442,-0.17084 0.477663,-0.25626 0.824466,-0.36735 1.683068,-0.64617 2.544572,-0.91374 0.829289,-0.16478 1.671492,-0.17894 2.51205,-0.0849 0.90362,0.0849 1.78921,0.25707 2.681726,0.41445 0.675418,0.0317 1.355749,0.005 2.025962,0.1103 0.782032,0.14465 1.532687,0.40253 2.266109,0.70862 1.253273,0.60552 2.396027,1.41389 3.511674,2.2411 0,0 -3.359068,2.10477 -3.359068,2.10477 z"
       inkscape:connector-curvature="0" />
    <path
       style="fill:#800080;stroke-width:0.26458332"
       id="path33"
       d="m 65.107748,123.92419 c 0.07573,1.59322 0.207124,3.23875 0.666758,4.77601 0.11212,0.37498 0.26494,0.73658 0.397409,1.10487 0.767858,1.98477 1.908635,3.77123 3.444185,5.25068 0.370636,0.35709 0.773488,0.67917 1.160229,1.01876 1.747099,1.33714 3.645755,2.48946 5.642385,3.41576 1.016005,0.47135 1.913774,0.80381 2.954539,1.21032 2.211467,0.78827 4.351327,1.75869 6.52794,2.63474 0.553204,0.23197 1.103921,0.4686 1.662205,0.68803 0,0 -3.294171,2.20255 -3.294171,2.20255 v 0 c -0.544846,-0.23343 -1.084186,-0.47899 -1.629947,-0.71038 -2.147599,-0.90784 -4.277109,-1.86222 -6.466014,-2.66908 -3.094244,-1.23521 -6.049206,-2.64047 -8.669687,-4.73659 -0.397674,-0.34765 -0.811938,-0.67718 -1.19302,-1.04293 -1.576813,-1.5134 -2.746647,-3.34525 -3.541625,-5.37576 -0.139462,-0.37991 -0.297714,-0.75344 -0.418385,-1.13973 -0.486286,-1.55667 -0.623028,-3.21419 -0.772544,-4.82876 0,0 3.529743,-1.79849 3.529743,-1.79849 z"
       inkscape:connector-curvature="0" />
    <path
       style="fill:#ffffff;stroke-width:0.26458332"
       id="path35"
       d="m 84.842468,117.97712 c -1.142844,-0.65225 -2.28246,-1.30991 -3.521136,-1.7622 -0.890746,-0.29124 -1.795769,-0.46942 -2.727941,-0.5459 -0.965949,0.0232 -1.897528,-0.20049 -2.841207,-0.36683 -0.970772,-0.15593 -1.955364,-0.18879 -2.936595,-0.21075 -0.852019,-0.0136 -1.704162,-0.008 -2.556245,-0.009 -0.941615,5.3e-4 -1.883225,0.002 -2.82484,10e-4 -0.910069,-0.0177 -1.811737,-0.008 -2.71563,0.0949 -0.880319,0.0689 -1.663655,0.49426 -2.433482,0.89057 -0.375605,0.1763 -0.550005,0.25139 -0.915085,0.44991 -0.144925,0.0788 -0.57219,0.32865 -0.429016,0.2467 5.3591,-3.06736 3.336665,-2.00973 2.191128,-1.1416 -0.795523,0.64397 -1.536904,1.35198 -2.218804,2.11462 -0.533863,0.65555 -0.959662,1.37762 -1.213339,2.18387 -0.187264,0.72971 -0.19906,1.48651 -0.208402,2.23517 -0.0028,0.70622 0.0026,1.41243 0.0037,2.11866 0.01175,0.8782 -0.02742,1.75741 0.0263,2.63437 0.02432,0.87224 0.295503,1.66021 0.745577,2.39713 0.436185,0.80783 1.038532,1.47 1.668913,2.12659 0.518506,0.60528 1.031441,1.21423 1.572307,1.79986 0.484704,0.5766 1.112198,0.98767 1.714545,1.42607 0.526034,0.34598 1.11991,0.56448 1.679073,0.84833 0.551225,0.3048 1.134284,0.51633 1.721506,0.73302 0.582147,0.28979 1.160055,0.55553 1.797952,0.69255 0.733896,0.048 1.425821,0.25409 2.123662,0.47073 0.638135,0.2131 1.303965,0.30288 1.956779,0.45415 0.675968,0.24795 1.35808,0.47475 2.03331,0.72397 0.711237,0.27236 1.286875,0.74772 1.839158,1.25698 0.658926,0.63285 1.308338,1.27694 1.828049,2.03083 0.532262,0.74415 0.923171,1.57078 1.366893,2.36702 0.405752,0.67786 0.541832,1.44132 0.613016,2.21525 0.09316,0.86567 0.0123,1.70685 -0.273246,2.52701 -0.417608,0.95407 -1.108705,1.73044 -1.815182,2.4787 -1.703483,1.57179 -3.850627,2.56576 -5.838161,3.70555 -1.156584,0.52667 -2.273369,1.13406 -3.441628,1.63481 -0.972048,0.34383 -1.987601,0.54813 -3.007231,0.68918 -0.571571,0.0896 -1.153348,0.0426 -1.724559,0.13418 -0.309759,0.0497 -0.614175,0.1283 -0.921676,0.19043 -1.03894,0.19632 -2.096844,0.25372 -3.15169,0.28038 -1.349709,0.0312 -2.699933,0.0191 -4.049858,0.014 -1.855878,0.01 -3.706437,-0.0924 -5.54073,-0.3715 -1.2358,-0.22185 -2.507821,-0.24596 -3.711834,-0.61806 -0.851167,-0.23493 -1.65291,-0.54079 -2.394731,-1.02182 -0.630309,-0.44392 -1.17924,-0.98835 -1.726202,-1.52823 -0.677037,-0.46177 -1.306237,-0.96799 -1.850049,-1.58473 -0.07699,-0.0939 -0.153977,-0.18779 -0.230965,-0.28169 0,0 3.408148,-2.04324 3.408148,-2.04324 v 0 c 0.07403,0.0897 0.148053,0.17946 0.222078,0.26919 0.543221,0.60551 1.187844,1.07708 1.83555,1.56256 0.528865,0.51893 1.060095,1.04367 1.679424,1.45586 0.723257,0.43791 1.510977,0.70323 2.322189,0.93401 1.200111,0.30373 2.441081,0.37986 3.658317,0.59488 1.821638,0.26959 3.662596,0.34265 5.503352,0.32641 1.354635,-0.005 2.709598,-0.003 4.063815,-0.0413 1.046686,-0.0469 2.094912,-0.11923 3.122456,-0.33682 0.88187,-0.16762 1.768867,-0.21556 2.659698,-0.31212 0.997937,-0.15975 1.994884,-0.37454 2.931292,-0.76372 1.156256,-0.52164 2.285039,-1.10337 3.422322,-1.66449 -5.847533,3.39827 -2.088711,1.34309 -0.896374,0.29901 0.702926,-0.71441 1.402109,-1.43951 1.874597,-2.33424 0.349125,-0.79499 0.425209,-1.49811 0.347739,-2.36188 -0.0539,-0.72168 -0.153797,-1.43569 -0.528963,-2.07105 -0.429961,-0.78838 -0.821243,-1.60016 -1.345285,-2.33296 -0.506177,-0.72812 -1.140539,-1.34738 -1.788464,-1.94963 -0.524473,-0.47141 -1.07564,-0.8975 -1.754661,-1.12423 -0.666956,-0.22946 -1.321297,-0.49658 -2.002208,-0.68189 -0.668372,-0.1312 -1.331915,-0.27317 -1.982031,-0.48018 -0.691695,-0.21469 -1.391618,-0.34447 -2.106501,-0.45453 -0.635759,-0.17733 -1.22093,-0.4632 -1.825932,-0.72254 -0.602321,-0.21049 -1.170712,-0.48923 -1.7419,-0.77264 -0.584496,-0.27682 -1.189231,-0.52339 -1.716357,-0.9053 -0.623684,-0.45086 -1.246119,-0.90618 -1.748608,-1.49698 -0.540226,-0.58355 -1.054034,-1.18856 -1.567061,-1.79598 -0.644406,-0.68065 -1.259218,-1.37223 -1.716553,-2.19792 -0.475858,-0.78845 -0.793612,-1.63257 -0.83266,-2.56361 -0.07262,-0.88294 -0.02572,-1.77026 -0.04432,-2.65556 -0.0041,-0.7075 -0.0104,-1.41502 -0.0095,-2.12253 0.0083,-0.77929 0.01611,-1.56387 0.16564,-2.33166 0.221916,-0.8651 0.623273,-1.6235 1.147587,-2.34716 0.675259,-0.78311 1.407049,-1.5109 2.193949,-2.18305 1.782853,-1.45562 3.869203,-2.48269 5.923095,-3.50353 0.797131,-0.39484 1.6247,-0.72947 2.524839,-0.77836 0.909725,-0.0838 1.821326,-0.0577 2.734067,-0.0581 0.943102,-0.002 1.886201,-0.002 2.829301,-0.005 0.853641,-0.003 1.707483,-0.003 2.560891,0.0196 0.993389,0.0332 1.989545,0.0849 2.969731,0.26003 0.936114,0.17137 1.867786,0.32605 2.822636,0.3399 0.952198,0.10336 1.879901,0.31391 2.782736,0.63897 1.243402,0.50274 2.399356,1.18159 3.576381,1.82037 0,0 -3.336914,2.14661 -3.336914,2.14661 z"
       inkscape:connector-curvature="0" />
    <path
       style="fill:#ffffff;stroke-width:0.26458332"
       id="path37"
       d="m 99.855609,117.71161 c -0.04318,2.4288 -0.04462,4.85824 -0.04929,7.28738 -0.0043,3.18093 -0.0051,6.36185 -5.3e-4,9.54279 7.94e-4,2.4929 0.01453,4.98577 0.02402,7.47865 0.0093,1.44945 0.01521,2.89893 0.01651,4.34841 -0.0016,1.25671 -8.8e-5,2.5134 5.29e-4,3.77011 0.0024,1.07501 0.0021,2.15002 0.006,3.22503 0.0019,0.92989 1.9e-4,1.85978 1.72e-4,2.78968 0.0011,0.58041 0.0021,1.16082 0.0021,1.74123 0,0 -3.534502,1.80092 -3.534502,1.80092 v 0 c -1.32e-4,-0.5811 0.0011,-1.16221 0.0021,-1.74331 -1.9e-5,-0.92995 -0.0019,-1.8599 1.72e-4,-2.78985 0.0039,-1.07703 0.0035,-2.15406 0.006,-3.23109 7.93e-4,-1.25693 0.0024,-2.51385 5.29e-4,-3.77077 0.0013,-1.45509 0.0072,-2.91019 0.01651,-4.36525 0.0095,-2.50103 0.02315,-5.00206 0.02402,-7.50312 0.0046,-3.18077 0.0038,-6.36152 -5.29e-4,-9.54229 -0.0046,-2.41239 -0.0058,-4.8251 -0.04929,-7.23715 0,0 3.535389,-1.80137 3.535389,-1.80137 z"
       inkscape:connector-curvature="0" />
    <path
       style="fill:#ffffff;stroke-width:0.26458332"
       id="path39"
       d="m 98.985937,116.77175 c 1.643193,-0.85873 3.445753,-1.32791 5.185803,-1.93954 1.37241,-0.43449 2.64955,-1.10371 4.02156,-1.53607 0.95781,-0.23392 1.94611,-0.26925 2.92722,-0.28506 0.88979,-0.0507 1.74426,0.005 2.59333,0.28082 0.14385,0.0589 0.29262,0.1069 0.43156,0.17656 0.29438,0.14761 0.55951,0.35363 0.83877,0.5253 0.42686,0.26242 0.86052,0.49991 1.27877,0.77732 0.78104,0.48166 1.40249,1.144 2.05204,1.77813 0.51882,0.57591 0.89978,1.25252 1.3528,1.87753 0.46337,0.66451 0.91364,1.33474 1.33583,2.02662 0.5162,0.73051 0.79134,1.55741 0.939,2.43002 0.0916,0.81273 0.34405,1.59315 0.47938,2.39945 0.14878,0.79026 0.12292,1.58076 0.0427,2.37502 -0.16583,1.05617 -0.79376,1.91233 -1.42559,2.74032 -0.75928,1.05377 -1.70225,1.93512 -2.7017,2.75444 -1.97752,1.54555 -4.23199,2.75183 -6.54446,3.72255 -0.50155,0.2453 -1.05528,0.32496 -1.58491,0.47779 -0.45699,0.13187 -0.89742,0.3093 -1.35687,0.4366 -0.801,0.22811 -1.63339,0.33317 -2.41369,0.62689 -1.40042,0.45777 -2.94207,1.55336 2.57876,-1.58382 0.0609,-0.0346 -0.18634,0.0618 -0.16602,0.12887 0.0191,0.063 0.0719,0.11034 0.10788,0.16551 0.71517,0.82899 1.61779,1.46394 2.46566,2.14693 1.09938,0.71185 2.20194,1.41949 3.22817,2.23483 0.90515,0.66057 1.78424,1.35081 2.63297,2.08264 0.68222,0.64058 1.48289,1.14588 2.0522,1.89604 0.53063,0.67402 0.82963,1.44145 0.98912,2.27513 0.12042,0.79465 0.11815,1.60097 0.11972,2.40271 0.0569,0.84229 -0.15151,1.61368 -0.54523,2.34897 -0.31513,0.468 -0.67686,0.9637 -1.17267,1.25945 -3.62124,2.16009 -2.38127,1.73828 -4.11259,2.28471 -0.8835,0.1816 -1.78791,0.19112 -2.68603,0.20056 -0.94983,0.22632 -1.91345,0.35734 -2.8848,0.44142 -0.9234,0.0687 -1.84948,0.0778 -2.77493,0.0836 -0.75828,0.002 -1.51657,5.3e-4 -2.27486,-2.6e-4 -0.71731,-0.0241 -1.42181,-0.0164 -2.10257,0.22562 -0.78838,0.28724 -1.59597,0.5209 -2.376539,0.82867 -0.835859,0.26303 -1.609421,0.66832 -2.416699,1.00022 -1.537121,0.56045 -4.335026,2.27382 1.559089,-1.09727 -1.927283,1.16409 -3.858951,2.34356 -5.885609,3.3313 -0.515932,0.27731 -1.059246,0.4885 -1.576131,0.76512 0,0 3.096906,-2.48105 3.096906,-2.48105 v 0 c 0.52361,-0.25358 1.05859,-0.48338 1.572056,-0.75777 0.45252,-0.23149 0.904637,-0.46418 1.34874,-0.71161 0.135059,-0.0753 0.535787,-0.30883 0.40223,-0.23095 -3.14807,1.83573 -3.944516,2.40314 -2.668926,1.51551 1.945421,-1.11994 3.333517,-2.04488 5.265763,-2.79328 0.79835,-0.35212 1.59658,-0.70146 2.42351,-0.98348 0.79525,-0.28342 1.59512,-0.55594 2.4018,-0.80503 0.71816,-0.15166 1.43927,-0.16376 2.17169,-0.14127 0.75594,0.002 1.5119,0.005 2.26784,10e-4 0.91628,-0.007 1.83352,-0.0228 2.74666,-0.10575 0.97753,-0.10054 1.93612,-0.30362 2.91028,-0.42125 0.87437,-0.0176 1.76743,-0.0308 2.60389,-0.31531 1.39372,-0.65369 0.63569,-0.31098 -2.70173,1.62172 -0.11993,0.0695 0.23841,-0.142 0.35131,-0.2224 0.22898,-0.16304 0.43825,-0.34616 0.62546,-0.55604 0.0919,-0.10307 0.17167,-0.21641 0.25751,-0.32461 0.43022,-0.66007 0.69831,-1.35415 0.63861,-2.15824 -0.001,-0.78046 0.008,-1.56435 -0.0886,-2.34029 -0.12917,-0.7781 -0.39138,-1.4899 -0.89625,-2.11001 -0.55892,-0.71906 -1.34781,-1.20309 -1.9973,-1.83464 -0.84349,-0.72828 -1.73045,-1.39745 -2.61697,-2.07175 -1.0338,-0.80654 -2.14009,-1.50741 -3.22583,-2.24061 -0.88463,-0.70736 -1.82849,-1.36818 -2.56524,-2.23681 -0.13767,-0.21656 -0.27985,-0.37447 -0.2923,-0.64598 -0.004,-0.0778 0.003,-0.18244 0.0689,-0.22336 1.71057,-1.05574 2.6776,-1.77157 4.27634,-2.28311 0.79825,-0.23184 1.61984,-0.37506 2.41746,-0.61175 0.97093,-0.29997 1.95698,-0.56013 2.89899,-0.943 0.53844,-0.24013 0.58694,-0.25434 1.11069,-0.51716 0.19189,-0.0963 0.75558,-0.40737 0.57218,-0.29575 -5.29453,3.22225 -2.97747,1.85091 -1.90431,1.00952 1.01903,-0.77785 1.98233,-1.63253 2.74741,-2.66868 0.60519,-0.77772 1.24695,-1.55324 1.49171,-2.5309 0.0854,-0.76331 0.15355,-1.51918 0.009,-2.28263 -0.12537,-0.80963 -0.38418,-1.58888 -0.48033,-2.40047 -0.12095,-0.82826 -0.36609,-1.60722 -0.85872,-2.29713 -0.41723,-0.68349 -0.87708,-1.3349 -1.32926,-1.99494 -0.43751,-0.60858 -0.80435,-1.26861 -1.31477,-1.82221 -0.62687,-0.62036 -1.2383,-1.25492 -2.00066,-1.71656 -0.79768,-0.50767 -1.6038,-1.04853 -2.49129,-1.37885 -0.82906,-0.2145 -1.66978,-0.21371 -2.52216,-0.18144 -0.95952,0.0299 -1.92748,0.0824 -2.84994,0.37309 -1.34446,0.46372 -2.62426,1.09673 -3.98605,1.51512 -1.759766,0.59452 -3.550514,1.12616 -5.199418,2.00062 0,0 3.102977,-2.46623 3.102977,-2.46623 z"
       inkscape:connector-curvature="0" />
    <path
       style="fill:#ffffff;stroke-width:0.26458332"
       id="path41"
       d="m 33.413932,172.35907 c 3.829296,0.0344 7.646123,-0.4501 11.457067,-0.77867 5.711859,-0.66187 11.442057,-1.11767 17.185277,-1.38197 4.668676,-0.14001 9.337741,-0.27836 14.007643,-0.3738 3.671413,-0.0721 7.343597,-0.0958 11.015635,-0.10802 2.721039,-0.0103 5.442109,-0.0101 8.163163,-0.0109 2.217219,-0.17038 4.412398,-0.53426 6.618283,-0.80337 1.85198,-0.21851 3.71768,-0.24776 5.58001,-0.26909 1.30408,-0.0484 2.61249,0.0366 3.91622,-0.008 0.35622,-0.0122 1.75328,-0.13326 2.09316,-0.16162 2.12137,-0.28426 4.2536,-0.45663 6.39068,-0.5595 1.62617,-0.0711 3.25413,-0.0855 4.88163,-0.089 1.44765,2.6e-4 2.8953,0.003 4.34296,0.005 1.2253,-0.002 2.45061,-0.002 3.67592,-0.005 0.64494,-8e-4 0.32881,-2.6e-4 0.94839,-0.002 0,0 -3.20703,2.33003 -3.20703,2.33003 v 0 c -0.61587,-0.002 -0.30139,-8e-4 -0.94343,-0.002 -1.21934,-0.004 -2.43867,-0.004 -3.658,-0.008 -1.44821,-5.3e-4 -2.89641,-0.004 -4.34461,-0.002 -1.6157,0.005 -3.23185,0.0124 -4.84621,0.086 -2.13334,0.1091 -4.25847,0.30492 -6.37871,0.56599 -2.00937,0.15921 -4.01798,0.15723 -6.03295,0.15418 -1.85423,0.029 -3.71119,0.0778 -5.554018,0.3028 -2.20523,0.2732 -4.403476,0.63284 -6.624965,0.74891 -2.711654,-0.003 -5.423305,-0.006 -8.134958,-0.008 -3.655272,0.005 -7.31065,0.0134 -10.96544,0.0799 -4.655925,0.092 -9.311269,0.21895 -13.966017,0.35529 -5.738151,0.26027 -11.463274,0.70885 -17.168014,1.38916 -3.87722,0.35374 -7.754363,0.84681 -11.651501,0.87904 0,0 3.199815,-2.3248 3.199815,-2.3248 z"
       inkscape:connector-curvature="0" />
    <path
       style="fill:#ffffff;stroke-width:0.26458332"
       id="path43"
       d="m 37.919493,108.70609 c 3.910179,-0.31207 7.768066,-1.05376 11.65384,-1.56115 1.280086,-0.16716 2.564069,-0.30296 3.846105,-0.45444 7.893918,-0.85567 15.834172,-1.11418 23.767446,-1.27058 6.358009,-0.0972 12.716992,-0.0987 19.075588,-0.0934 5.282328,0.008 10.564658,0.005 15.846978,-0.004 3.36471,-0.007 6.7294,-0.0185 10.0941,-0.0249 2.10549,-0.005 4.21099,-0.007 6.31646,-0.0153 0.70475,-0.001 1.4095,-0.003 2.11424,-0.006 0,0 -3.19299,2.31985 -3.19299,2.31985 v 0 c -0.69945,-0.003 -1.3989,-0.004 -2.09835,-0.006 -2.09155,-0.008 -4.18314,-0.01 -6.27471,-0.0151 -3.34003,-0.007 -6.68005,-0.0189 -10.02007,-0.0292 -5.26501,-0.015 -10.530024,-0.0284 -15.79505,-0.0342 -6.33698,-0.007 -12.67433,-0.033 -19.010921,0.0554 -7.920908,0.14667 -15.85083,0.38654 -23.728336,1.28789 -1.291164,0.1622 -2.584373,0.30887 -3.873489,0.4866 -3.972245,0.54767 -7.915156,1.31824 -11.908554,1.71015 0,0 3.187713,-2.34655 3.187713,-2.34655 z"
       inkscape:connector-curvature="0" />
  </g>
</svg>
